<svg id="Capa_6" data-name="Capa 6" xmlns="http://www.w3.org/2000/svg" viewBox="0 0 70.8 74.93"><defs><style>.cls-1{fill:#dcb228;}</style></defs><title>copa</title><path class="cls-1" d="M60.81,0H10.42c-17.68,23.8-7.5,35.07-7.5,35.07,3.18,4.11,8.46,6.62,12.94,8.09A47.77,47.77,0,0,0,24,45.08c8-.58,7,11.27,7,11.27V66.77H17.68v8.16H54.23V66.84H39.49V56.42a40.12,40.12,0,0,1,.28-6.48c.74-5.38,8.84-5.38,8.84-5.38C69,41.16,70.36,29,70.36,29,73.29,15.36,60.81,0,60.81,0Zm2.55,23.58s-1.12,12-16.44,14.26c0,0-12.69,2-22.1,0,0,0-15-2-17-12,0,0-1.27-7.76,5.48-18.15H56.68s7.2,8.37,6.64,15.91Z" transform="translate(0)"/></svg>