<svg id="Capa_5" data-name="Capa 5" xmlns="http://www.w3.org/2000/svg" viewBox="0 0 73.23 77.95"><defs><style>.cls-1{fill:#dcb228;}</style></defs><title>jarra</title><path class="cls-1" d="M73.24,5.89,69.81,0,27.18,14.72C9.32,20.06,3.6,30.62,3.6,30.62c-6.48,8.15-2.22,19.16-2.22,19.16,3.73,8.84,18.93,11.79,18.93,11.79L18.84,78l48.59-.12-4.8-43.48C59.52,20.58,73.24,5.89,73.24,5.89ZM20.46,53.22S8.82,52,8.19,44.63c0,0-3.2-11,14-19.49ZM54.25,29.79l4,40.13H26.85l3.3-47.5L42.24,18l4-1.47,13.85-5a23.38,23.38,0,0,0-3.72,6.76c-.16.45-.32.9-.47,1.37A35.2,35.2,0,0,0,54.25,29.79Z" transform="translate(-0.01)"/></svg>