<svg id="Capa_1" data-name="Capa 1" xmlns="http://www.w3.org/2000/svg" viewBox="0 0 807.04 974.33"><defs><style>.cls-1{opacity:0.94;}.cls-2{fill:#dcb228;}.cls-3{fill:#fefefe;}</style></defs><title>mundo</title><g class="cls-1"><path class="cls-2" d="M525,963.5c18,5.3,36.49,7.18,55,8.64,116.17,9.15,223.07-18.59,321.12-81.24a28.59,28.59,0,0,1,3.81-1.73v1.7c-5.61,10.71-15.53,17-24.87,23.71-25,17.95-52.65,30.63-81.45,40.94a566.46,566.46,0,0,1-126.7,29.69c-12.27,1.4-24.66.57-36.9,2.3-29.42,0-51.34-1.45-88.72-1.47a307.47,307.47,0,0,1-54.89-4.58c-80-14.65-152.77-45.23-215.72-97.24-45.86-37.88-82.4-83.57-110.67-136A592.11,592.11,0,0,1,102.56,567a304.4,304.4,0,0,1-4.38-47.19c-.77-48.35-.68-96.55,11.48-144,17.39-68,47.56-129.27,91.71-183.71,55-67.75,122.88-118.08,204-150.28,31.08-12.34,63.18-21.47,96.39-26.25,8.88-1.28,9.71-2.35,26.77-2.34l66.2,0,35.43,5.45c0,2.51,2.16,2.81-6.62,2.8q-146.19,2.76-269.92,80.64c-8.36,5.26-16.27,11.23-24.58,16.56-4.18,2.68-3.72,4.91-.36,7.63.87.71,1.64,1.55,2.49,2.3,16.79,14.78,16.72,14.68,34.77,1.83C425.6,87.92,492.25,62.26,564,49a602.5,602.5,0,0,1,76.47-9.22c2.83-.16,7.92-1,9.6,2.8-6.4-1-14.23,2.67-17.91,2.67-4.09,0-8.28,2.83-11.47,3.58-39.69,9.25-78.91,20-116.87,35.09-41.7,16.53-81.37,36.84-118,62.76-2,1.44-4.24,2.74-6,5.4,10.43,5.89,21.86,7.92,32.75,11.34,8.08,2.54,16.49,4,24.63,6.36,5.8,1.69,10.05.4,14.56-3.72,20.44-18.68,40.81-37.44,63.45-53.55,17.54-12.48,35.39-24.39,54.22-34.8,2.45-1.35,4.75-3.18,7.83-2.84,1.31.38,2.39,1,2.12,2.63-44.72,26.94-85.25,59-121.09,98.91,36.84,8.2,73.1,12.92,109.18,18.64-.05.21-2,2.1-3.7,1.79-35.51-1.94-70.95-4.8-106.12-10.19-5.7-.88-9.32.55-13,5-46.16,56-79.39,118.91-100.65,188.27-1.92,6.27-.75,8.52,5.58,10.16,48.74,12.65,98.47,19.33,148.31,25.36,39.5,4.79,79,9.38,118.52,14.05.52.2.74.46.65.8s-.21.54-.36.54c-40.34-2-80.7-3.67-121-6-42.87-2.42-85.69-5.51-128.07-12.87-7.51-1.3-15.14-2.23-22.44-4.31-6.34-1.8-8.79-.38-10.29,6.19-13.33,58.52-18.27,117.62-13.95,177.54,4.9,68,20.58,133.13,49.57,194.91,5.63,12,12.26,23.5,18.24,35.34,1.84,3.63,4.52,5.32,8.4,6.19,49.91,11.13,100.38,18.91,151.05,25.53,18.76,2.46,37.55,4.68,56.33,7,.41,1.64-.48,1.89-1.85,1.88-66.2-2.87-132.43-5.27-199.37-17.37a388.16,388.16,0,0,0,96.07,101.84c.48,1.59-.49,2.28-1.74,2.79-4.12.65-6.89-2.11-9.89-4.09-38.32-25.31-70.8-56.87-98.58-93.27-5.28-6.91-11.17-11.27-19.74-13.16-17.4-3.86-34.16-9.89-50.53-17-3-1.31-6.22-2.38-8.4-5.09,28,37.24,60.83,69.5,99.27,96,29,20,59.29,37.28,94.39,44.34a63.33,63.33,0,0,1,11.38,3.33A91.31,91.31,0,0,0,525,963.5Z" transform="translate(-97.91 -13.18)"/><path class="cls-2" d="M577.49,75.84c12-7.3,24.09-14.62,37.79-18.56-11.43,7.75-24,13.51-36,20.19C578.67,76.92,578.08,76.38,577.49,75.84Z" transform="translate(-97.91 -13.18)"/><path class="cls-2" d="M497.21,948.67l2.05-2L525,963.5c-3.56-.07-7.33,1.61-10.53-1.32-2.84-4-8.11-4.06-11.62-7C500.62,953.23,497.15,952.53,497.21,948.67Z" transform="translate(-97.91 -13.18)"/><path class="cls-2" d="M602.56,862.24c.62-.62,1.23-1.25,1.85-1.88l22.33,1.94C618.59,863.6,615.64,862.19,602.56,862.24Z" transform="translate(-97.91 -13.18)"/><path class="cls-2" d="M563.64,196.81l3.7-1.79,15.24,1.65c.47,1.53.44,1.69-1.63,1.69C575.16,198.1,571.22,196.81,563.64,196.81Z" transform="translate(-97.91 -13.18)"/><path class="cls-2" d="M623.5,21.45l6.62-2.8,10.43,1.69-.11,1.12Z" transform="translate(-97.91 -13.18)"/><path class="cls-2" d="M581,198.36l1.63-1.69,12.17,2C590,200,587,198.36,581,198.36Z" transform="translate(-97.91 -13.18)"/><path class="cls-2" d="M616.59,430.79a1.56,1.56,0,0,1-.29-1.34c4.78-.14,10,1.28,14.81.88C626.44,431.46,622.27,430.8,616.59,430.79Z" transform="translate(-97.91 -13.18)"/><path class="cls-3" d="M232.12,359.17c23.75,19.77,50.37,31.72,78.78,39.92,5.46,1.57,4.4,4.4,3.38,8a528.14,528.14,0,0,0-19.36,138c-.69,79.6,14.62,156,48.73,228.23,7.45,15.79,16.12,30.91,25.77,47.25-21.15-5-40-12.13-59.18-18.57-13.58-4.56-22.56-12.8-29.88-25.2-53.62-90.82-78.31-188.66-72.49-294A462.37,462.37,0,0,1,232.12,359.17Z" transform="translate(-97.91 -13.18)"/><path class="cls-3" d="M437.85,183.75c-26.1,28.57-48.31,58-67.2,89.94S336,338.91,324.59,374.18c-2.16,6.66-4.69,7-10.55,4.77-24.43-9.17-47.63-20.48-68.63-36.18-4.8-3.59-6.2-6.56-4-12.56Q278,232,358.44,164.9c3.77-3.15,6.49-3.59,11-1.44C390.66,173.54,413.31,179.1,437.85,183.75Z" transform="translate(-97.91 -13.18)"/><path class="cls-3" d="M195.6,698.71c-36.4-77.92-56.16-159.47-52.21-245.87a415,415,0,0,1,45.19-171.26c.73-1.44,1.53-2.84,3.16-5.84,2.13,20.45,6.56,38.53,16.57,54.78,2.08,3.36.1,6.05-.95,8.78a532.57,532.57,0,0,0-32.51,135.31c-7.83,74.85-1,148.15,22,219.9.25.8.35,1.65.52,2.48C198,698.78,197.14,699.11,195.6,698.71Z" transform="translate(-97.91 -13.18)"/><path class="cls-3" d="M217.23,314.93c-10.28-12.11-17-25.32-22.81-39.09-1.24-2.94-.14-5.41,1.29-8,31.11-55.77,72.42-102.65,123-141.51,3.76-2.88,5.39-2.36,7.5,1.54a48.28,48.28,0,0,0,12.37,14.9c4.78,3.78,3.62,5.92-.46,9.3-31.31,25.92-58,56.1-80.75,89.7A456.32,456.32,0,0,0,217.23,314.93Z" transform="translate(-97.91 -13.18)"/><path class="cls-3" d="M497.21,948.67c5.15,4.71,11.6,7.38,17.45,11,1.86,1.15,2.75,1.9-.19,2.53C425.08,942.33,362.2,885,307.39,816c14.75,5,28.63,12.53,43.78,15.45,22.42,4.3,38.05,15.94,52,34.29C428.69,899.4,460.79,926.75,497.21,948.67Z" transform="translate(-97.91 -13.18)"/></g></svg>